<svg width="15" height="77" viewBox="0 0 15 77" fill="none" xmlns="http://www.w3.org/2000/svg">
<path d="M8.5 1C8.5 0.447715 8.05228 0 7.5 0C6.94772 0 6.5 0.447715 6.5 1L8.5 1ZM6.79289 76.7071C7.18342 77.0976 7.81658 77.0976 8.20711 76.7071L14.5711 70.3431C14.9616 69.9526 14.9616 69.3195 14.5711 68.9289C14.1805 68.5384 13.5474 68.5384 13.1569 68.9289L7.5 74.5858L1.84315 68.9289C1.45262 68.5384 0.819456 68.5384 0.428932 68.9289C0.0384079 69.3195 0.0384079 69.9526 0.428932 70.3431L6.79289 76.7071ZM6.5 1L6.5 76H8.5L8.5 1L6.5 1Z" fill="white"/>
</svg>
