<svg width="30" height="30" viewBox="0 0 30 30" fill="none" xmlns="http://www.w3.org/2000/svg">
<path d="M9.78691 18.1254C7.43613 18.2766 5.30273 19.1719 4.09219 22.3617C3.95449 22.7256 3.62344 22.9465 3.2373 22.9465C2.58633 22.9465 0.573633 21.3252 0 20.9338C0.000585937 25.759 2.22305 30 7.50059 30C11.9455 30 15.0006 27.4354 15.0006 22.9576C15.0006 22.7754 14.9625 22.6014 14.9437 22.4227L9.78691 18.1254ZM26.8301 0C25.9418 0 25.1092 0.393164 24.474 0.963867C12.4969 11.6631 11.2506 11.9145 11.2506 15.0639C11.2506 15.8666 11.441 16.6318 11.7621 17.3314L15.5016 20.4475C15.924 20.5529 16.3594 20.625 16.8135 20.625C20.4527 20.625 22.5621 17.9607 29.1861 5.59805C29.6186 4.75723 30.0006 3.84902 30.0006 2.90332C30.0006 1.20937 28.4771 0 26.8301 0Z" fill="#16163C"/>
</svg>
