<svg width="32" height="32" viewBox="0 0 32 32" fill="none" xmlns="http://www.w3.org/2000/svg">
<path d="M20.6669 16.4437V10.8362L17.37 9.32242C13.715 13.6712 12.3487 24.9987 3.5 24.9987C2.57174 24.9987 1.6815 25.3674 1.02513 26.0238C0.368749 26.6802 0 27.5704 0 28.4987C0 29.4269 0.368749 30.3172 1.02513 30.9735C1.6815 31.6299 2.57174 31.9987 3.5 31.9987C16.79 31.9987 26.6656 24.3193 29.6987 18.8524L27.3831 16.4437H20.6669ZM28.86 8.42055C30.87 4.68055 29.8237 1.65367 28.6637 0.186171C28.6195 0.131289 28.5641 0.0863851 28.5013 0.0544052C28.4385 0.0224252 28.3696 0.00409259 28.2992 0.000610368C28.2288 -0.00287185 28.1584 0.00857507 28.0928 0.0341999C28.0271 0.0598247 27.9676 0.0990482 27.9181 0.149296L26.4869 1.5868C26.4047 1.67028 26.3542 1.77979 26.3441 1.89648C26.3339 2.01317 26.3647 2.12975 26.4312 2.22617C26.86 2.87367 27.4969 4.41992 26.3437 6.74617C25.2171 6.25366 24.0008 5.99917 22.7712 5.99867C21.0212 5.99867 19.3962 6.53242 18 7.41054L22.6669 9.55367V14.4437H28.235L31.6525 17.9987C31.8562 17.2099 32 16.3968 32 15.5418C32.0012 14.2016 31.7226 12.8759 31.1819 11.6496C30.6412 10.4234 29.8503 9.32352 28.86 8.42055Z" fill="white"/>
</svg>
