<svg width="26" height="32" viewBox="0 0 26 32" fill="none" xmlns="http://www.w3.org/2000/svg">
<path d="M7.99988 22.4V20.8H1.59988V22.4C1.59988 24.1675 3.03238 25.6 4.79988 25.6C6.56738 25.6 7.99988 24.1675 7.99988 22.4ZM20.7999 32C22.5674 32 23.9999 30.5675 23.9999 28.8V27.2H17.5999V28.8C17.5999 30.5675 19.0324 32 20.7999 32ZM14.3999 15.127C14.3999 16.8725 15.0559 18.935 15.9999 20.3635C16.8189 21.603 17.5999 22.5895 17.5999 25.6H23.9999L24.7984 22.7235C25.1624 21.413 25.4544 20.073 25.5509 18.708C25.6664 17.0735 25.5844 15.428 25.2409 13.829C24.0649 8.355 21.4609 6.4 19.1999 6.4C15.9999 6.4 14.3999 10.609 14.3999 15.127ZM0.359381 7.429C0.0158808 9.028 -0.0666192 10.6735 0.0493808 12.308C0.145881 13.673 0.437881 15.013 0.801381 16.3235L1.59988 19.2H7.99988C7.99988 16.19 8.78088 15.203 9.59988 13.9635C10.5439 12.535 11.1999 10.4725 11.1999 8.727C11.1999 4.209 9.59988 -4.76837e-07 6.39988 -4.76837e-07C4.13888 -4.76837e-07 1.53488 1.955 0.359381 7.429Z" fill="white"/>
</svg>
