<svg width="32" height="32" viewBox="0 0 32 32" fill="none" xmlns="http://www.w3.org/2000/svg">
<path d="M10.4392 19.3334C7.93172 19.4946 5.65614 20.4496 4.36491 23.852C4.21804 24.2402 3.86492 24.4758 3.45306 24.4758C2.7587 24.4758 0.611863 22.7464 0 22.3289C0.000624988 27.4757 2.3712 31.9994 8.00047 31.9994C12.7416 31.9994 16.0003 29.2638 16.0003 24.4876C16.0003 24.2933 15.9597 24.1077 15.9397 23.917L10.4392 19.3334ZM28.6182 0C27.6707 0 26.7826 0.419367 26.1051 1.0281C13.3297 12.4404 12.0004 12.7085 12.0004 16.0678C12.0004 16.924 12.2035 17.7403 12.546 18.4865L16.5347 21.8102C16.9853 21.9227 17.4497 21.9996 17.934 21.9996C21.8158 21.9996 24.0658 19.1577 31.1313 5.97113C31.5925 5.07428 32 4.10554 32 3.09681C32 1.28997 30.375 0 28.6182 0Z" fill="#16163C"/>
</svg>
