<svg width="31" height="30" viewBox="0 0 31 30" fill="none" xmlns="http://www.w3.org/2000/svg">
<path d="M19.376 15.4166V10.1593L16.2851 8.74013C12.8583 12.8173 11.5774 23.4372 3.28139 23.4372C2.41111 23.4372 1.57648 23.7829 0.961096 24.3983C0.345716 25.0137 0 25.8483 0 26.7186C0 27.5889 0.345716 28.4235 0.961096 29.0389C1.57648 29.6543 2.41111 30 3.28139 30C15.7413 30 25.0001 22.8003 27.8437 17.6749L25.6727 15.4166H19.376ZM27.0574 7.89459C28.9418 4.38819 27.9609 1.55038 26.8734 0.174543C26.8319 0.123089 26.78 0.0809895 26.7211 0.051007C26.6622 0.0210245 26.5976 0.00383696 26.5316 0.000572244C26.4656 -0.00269247 26.3996 0.00803946 26.3381 0.0320637C26.2765 0.056088 26.2207 0.0928616 26.1743 0.139971L24.8325 1.48768C24.7555 1.56595 24.7081 1.66862 24.6986 1.77802C24.6891 1.88743 24.718 1.99673 24.7803 2.08712C25.1823 2.69418 25.7794 4.14385 24.6983 6.3248C23.642 5.86305 22.5017 5.62446 21.3489 5.62399C19.7082 5.62399 18.1847 6.1244 16.8757 6.94768L21.2511 8.95694V13.5415H26.4714L29.6755 16.8745C29.8665 16.135 30.0012 15.3726 30.0012 14.571C30.0024 13.3146 29.7412 12.0717 29.2342 10.922C28.7273 9.77231 27.9858 8.74117 27.0574 7.89459Z" fill="#16163C"/>
</svg>
