<svg width="33" height="40" viewBox="0 0 33 40" fill="none" xmlns="http://www.w3.org/2000/svg">
<path d="M16.2421 1.18761C16.3046 1.55479 17.4999 8.5704 17.4999 11.2501C17.4999 15.336 15.3281 18.2501 12.1172 19.4219L13.125 38.0234C13.1796 39.0938 12.3281 40 11.25 40H6.24998C5.17967 40 4.3203 39.1016 4.37499 38.0234L5.3828 19.4219C2.16406 18.2501 0 15.3282 0 11.2501C0 8.56259 1.19531 1.55479 1.25781 1.18761C1.50781 -0.398325 4.79686 -0.421762 4.99999 1.27355V12.3048C5.10155 12.5704 6.17967 12.5548 6.24998 12.3048C6.35936 10.3282 6.86717 1.4298 6.87498 1.22667C7.13279 -0.398325 10.3672 -0.398325 10.6172 1.22667C10.6328 1.43761 11.1328 10.3282 11.2422 12.3048C11.3125 12.5548 12.3984 12.5704 12.4922 12.3048V1.27355C12.6953 -0.41395 15.9921 -0.398325 16.2421 1.18761ZM25.5546 23.5079L24.3827 37.9688C24.289 39.0625 25.1562 40 26.2499 40H30.6249C31.664 40 32.4999 39.1641 32.4999 38.125V1.87511C32.4999 0.843859 31.664 0.00011166 30.6249 0.00011166C24.1796 0.00011166 13.3281 13.9454 25.5546 23.5079Z" fill="white"/>
</svg>
