<svg width="40" height="40" viewBox="0 0 40 40" fill="none" xmlns="http://www.w3.org/2000/svg">
<path d="M15.9602 0.393369C8.19449 1.90902 1.93658 8.1513 0.405303 15.8936C-2.48537 30.5032 10.6945 41.394 20.6244 39.8549C23.8432 39.3549 25.4213 35.5892 23.9447 32.6908C22.14 29.1438 24.7182 25.0031 28.7026 25.0031H34.9293C37.7262 25.0031 39.9919 22.6906 39.9997 19.9015C39.9606 7.5888 28.7573 -2.09886 15.9602 0.393369ZM7.49917 25.0031C6.11633 25.0031 4.99913 23.8859 4.99913 22.5031C4.99913 21.1203 6.11633 20.0031 7.49917 20.0031C8.882 20.0031 9.9992 21.1203 9.9992 22.5031C9.9992 23.8859 8.882 25.0031 7.49917 25.0031ZM9.9992 15.003C8.61637 15.003 7.49917 13.8858 7.49917 12.5029C7.49917 11.1201 8.61637 10.0029 9.9992 10.0029C11.382 10.0029 12.4992 11.1201 12.4992 12.5029C12.4992 13.8858 11.382 15.003 9.9992 15.003ZM19.9994 10.0029C18.6165 10.0029 17.4993 8.88569 17.4993 7.50286C17.4993 6.12002 18.6165 5.00282 19.9994 5.00282C21.3822 5.00282 22.4994 6.12002 22.4994 7.50286C22.4994 8.88569 21.3822 10.0029 19.9994 10.0029ZM29.9995 15.003C28.6167 15.003 27.4995 13.8858 27.4995 12.5029C27.4995 11.1201 28.6167 10.0029 29.9995 10.0029C31.3824 10.0029 32.4996 11.1201 32.4996 12.5029C32.4996 13.8858 31.3824 15.003 29.9995 15.003Z" fill="white"/>
</svg>
