<svg width="50" height="40" viewBox="0 0 50 40" fill="none" xmlns="http://www.w3.org/2000/svg">
<path d="M8.33281 13.3313H8.33984L12.2109 11.718C12.2944 11.6703 12.3645 11.6023 12.4147 11.5204C12.465 11.4385 12.4938 11.3452 12.4984 11.2492C12.494 11.1532 12.4653 11.0598 12.415 10.9778C12.3647 10.8959 12.2945 10.828 12.2109 10.7805L8.33828 9.16562H8.33281L6.71875 5.2875C6.67559 5.20094 6.60915 5.12813 6.5269 5.07724C6.44465 5.02635 6.34985 4.99939 6.25313 4.99939C6.1564 4.99939 6.0616 5.02635 5.97935 5.07724C5.8971 5.12813 5.83067 5.20094 5.7875 5.2875L4.17031 9.16484H4.16641L0.289063 10.7812C0.205177 10.8286 0.134661 10.8964 0.084108 10.9784C0.0335553 11.0603 0.00461735 11.1538 0 11.25C0.00467113 11.346 0.0334616 11.4393 0.0837113 11.5212C0.133961 11.6031 0.204049 11.6711 0.2875 11.7188L4.16172 13.3281H4.16719L5.78125 17.2078C5.82421 17.2946 5.89057 17.3677 5.97284 17.4187C6.05512 17.4698 6.15003 17.4969 6.24688 17.4969C6.34372 17.4969 6.43863 17.4698 6.52091 17.4187C6.60318 17.3677 6.66954 17.2946 6.7125 17.2078L8.32891 13.3313H8.33281ZM36.8266 36.5164L36.7484 36.4836L36.6703 36.4445C36.1692 36.1933 35.7479 35.8077 35.4534 35.3307C35.159 34.8538 35.003 34.3043 35.003 33.7438C35.003 33.1832 35.159 32.6337 35.4534 32.1568C35.7479 31.6798 36.1692 31.2942 36.6703 31.043L36.7484 31.0047L36.8266 30.9711L39.7555 29.75L40.9766 26.8219L41.0086 26.7438L41.0453 26.6695C41.3461 26.0648 41.8719 25.6047 42.4789 25.3148C42.4789 25.2109 42.4984 25.1047 42.5 25.0023V11.25C42.5 10.587 42.2366 9.95107 41.7678 9.48223C41.2989 9.01339 40.663 8.75 40 8.75C39.337 8.75 38.7011 9.01339 38.2322 9.48223C37.7634 9.95107 37.5 10.587 37.5 11.25V16.875C37.5 17.0408 37.4342 17.1997 37.3169 17.3169C37.1997 17.4342 37.0408 17.5 36.875 17.5H35.625C35.4592 17.5 35.3003 17.4342 35.1831 17.3169C35.0658 17.1997 35 17.0408 35 16.875V5C35 4.33696 34.7366 3.70107 34.2678 3.23223C33.7989 2.76339 33.163 2.5 32.5 2.5C31.837 2.5 31.2011 2.76339 30.7322 3.23223C30.2634 3.70107 30 4.33696 30 5V16.875C30 17.0408 29.9342 17.1997 29.8169 17.3169C29.6997 17.4342 29.5408 17.5 29.375 17.5H28.125C27.9592 17.5 27.8003 17.4342 27.6831 17.3169C27.5658 17.1997 27.5 17.0408 27.5 16.875V2.5C27.5 1.83696 27.2366 1.20107 26.7678 0.732233C26.2989 0.263392 25.663 0 25 0C24.337 0 23.7011 0.263392 23.2322 0.732233C22.7634 1.20107 22.5 1.83696 22.5 2.5V16.875C22.5 17.0408 22.4342 17.1997 22.3169 17.3169C22.1997 17.4342 22.0408 17.5 21.875 17.5H20.625C20.4592 17.5 20.3003 17.4342 20.1831 17.3169C20.0658 17.1997 20 17.0408 20 16.875V5C20 4.33696 19.7366 3.70107 19.2678 3.23223C18.7989 2.76339 18.163 2.5 17.5 2.5C16.837 2.5 16.2011 2.76339 15.7322 3.23223C15.2634 3.70107 15 4.33696 15 5V23.8281L13.157 21.2898C12.6692 20.6194 11.935 20.1703 11.116 20.0412C10.297 19.9122 9.46024 20.1137 8.78984 20.6016C8.11945 21.0894 7.67031 21.8236 7.54123 22.6426C7.41215 23.4616 7.61371 24.2984 8.10156 24.9688L17.9141 38.4539C18.2619 38.9319 18.7176 39.3211 19.2442 39.5898C19.7708 39.8585 20.3534 39.999 20.9445 40H36.3828C37.8859 40 39.168 39.0836 39.7609 37.7508L39.7555 37.7375L36.8266 36.5164ZM27.3273 26.525L25 27.4945L24.0297 29.8211C24.0037 29.8729 23.9638 29.9164 23.9145 29.9469C23.8652 29.9773 23.8083 29.9934 23.7504 29.9934C23.6924 29.9934 23.6356 29.9773 23.5863 29.9469C23.537 29.9164 23.4971 29.8729 23.4711 29.8211L22.5 27.4945L20.1727 26.525C20.1207 26.4991 20.0769 26.4592 20.0463 26.4098C20.0158 26.3604 19.9996 26.3034 19.9996 26.2453C19.9996 26.1872 20.0158 26.1303 20.0463 26.0809C20.0769 26.0314 20.1207 25.9915 20.1727 25.9656L22.5 24.9953L23.4703 22.6688C23.4963 22.617 23.5362 22.5734 23.5855 22.543C23.6348 22.5125 23.6917 22.4964 23.7496 22.4964C23.8076 22.4964 23.8644 22.5125 23.9137 22.543C23.963 22.5734 24.0029 22.617 24.0289 22.6688L25 24.9953L27.3273 25.9656C27.3793 25.9915 27.4231 26.0314 27.4537 26.0809C27.4843 26.1303 27.5005 26.1872 27.5005 26.2453C27.5005 26.3034 27.4843 26.3604 27.4537 26.4098C27.4231 26.4592 27.3793 26.4991 27.3273 26.525ZM50 33.743C49.9956 33.6469 49.9669 33.5535 49.9167 33.4715C49.8664 33.3896 49.7961 33.3217 49.7125 33.2742L45.8398 31.6594H45.8344L44.2188 27.7836C44.1756 27.697 44.1092 27.6242 44.0269 27.5733C43.9447 27.5224 43.8498 27.4955 43.7531 27.4955C43.6564 27.4955 43.5616 27.5224 43.4794 27.5733C43.3971 27.6242 43.3307 27.697 43.2875 27.7836L41.6703 31.6609H41.6664L37.7891 33.2812C37.7054 33.3287 37.6352 33.3966 37.5849 33.4786C37.5346 33.5605 37.506 33.6539 37.5016 33.75C37.5067 33.8454 37.5357 33.9379 37.5859 34.0192C37.6362 34.1004 37.706 34.1677 37.7891 34.2148L41.6617 35.8297H41.6672L43.2813 39.7039C43.3242 39.7907 43.3906 39.8638 43.4728 39.9148C43.5551 39.9659 43.65 39.993 43.7469 39.993C43.8437 39.993 43.9386 39.9659 44.0209 39.9148C44.1032 39.8638 44.1695 39.7907 44.2125 39.7039L45.8289 35.8273H45.8359L49.707 34.2133C49.7901 34.1661 49.86 34.0988 49.9102 34.0176C49.9604 33.9364 49.9894 33.8438 49.9945 33.7484L50 33.743Z" fill="white"/>
</svg>
