<svg width="16" height="20" viewBox="0 0 16 20" fill="none" xmlns="http://www.w3.org/2000/svg">
<path d="M16 8.39886C14.4272 8.40262 12.893 7.91213 11.6141 6.99667V13.3814C11.6137 14.5639 11.2522 15.7181 10.5781 16.6897C9.90398 17.6612 8.94932 18.4038 7.84177 18.8181C6.73422 19.2325 5.52657 19.2988 4.3803 19.0083C3.23403 18.7178 2.20377 18.0842 1.4273 17.1923C0.650823 16.3005 0.165135 15.1928 0.0351789 14.0174C-0.0947772 12.8421 0.137193 11.6551 0.700072 10.6151C1.26295 9.57513 2.12991 8.7318 3.18502 8.19787C4.24013 7.66393 5.4331 7.46484 6.60442 7.62721V10.8385C6.06842 10.6699 5.49286 10.675 4.95992 10.853C4.42698 11.031 3.96393 11.3729 3.63688 11.8298C3.30983 12.2867 3.13551 12.8353 3.13882 13.3971C3.14213 13.959 3.32289 14.5055 3.6553 14.9585C3.98771 15.4115 4.45477 15.7479 4.98976 15.9196C5.52476 16.0914 6.10035 16.0897 6.63432 15.9148C7.16829 15.7399 7.63335 15.4007 7.96307 14.9458C8.2928 14.4908 8.47033 13.9433 8.47032 13.3814V0.899902H11.6141C11.6119 1.16539 11.6341 1.43051 11.6805 1.69192C11.7898 2.27547 12.0169 2.83061 12.3481 3.32337C12.6792 3.81613 13.1074 4.23615 13.6064 4.55775C14.3164 5.0272 15.1488 5.27742 16 5.27724V8.39886Z" fill="white"/>
</svg>
